<?xml version="1.0" encoding="UTF-8" standalone="no"?>
<svg
   width="32"
   height="32"
   fill="#000000"
   viewBox="0 0 256 256"
   version="1.1"
   id="svg4"
   sodipodi:docname="arrow-fat-left-color.svg"
   inkscape:version="1.2.2 (b0a8486541, 2022-12-01)"
   xmlns:inkscape="http://www.inkscape.org/namespaces/inkscape"
   xmlns:sodipodi="http://sodipodi.sourceforge.net/DTD/sodipodi-0.dtd"
   xmlns="http://www.w3.org/2000/svg"
   xmlns:svg="http://www.w3.org/2000/svg">
  <defs
     id="defs8" />
  <sodipodi:namedview
     id="namedview6"
     pagecolor="#ffffff"
     bordercolor="#000000"
     borderopacity="0.25"
     inkscape:showpageshadow="2"
     inkscape:pageopacity="0.0"
     inkscape:pagecheckerboard="0"
     inkscape:deskcolor="#d1d1d1"
     showgrid="false"
     inkscape:zoom="16.875"
     inkscape:cx="16.02963"
     inkscape:cy="16"
     inkscape:window-width="1600"
     inkscape:window-height="842"
     inkscape:window-x="0"
     inkscape:window-y="26"
     inkscape:window-maximized="1"
     inkscape:current-layer="svg4" />
  <path
     d="M 226.15439,72.003388 H 136.92631 V 32.005809 A 8.9228071,7.9995159 0 0 0 121.69062,26.346151 L 14.61694,122.34035 a 8.9228071,7.9995159 0 0 0 0,11.31931 l 107.07368,95.99419 a 8.9228071,7.9995159 0 0 0 15.23569,-5.65965 v -39.99759 h 89.22808 A 17.845614,15.999032 0 0 0 244,167.99759 V 88.00242 A 17.845614,15.999032 0 0 0 226.15439,72.003388 Z m 0,95.994202 h -98.15088 a 8.9228071,7.9995159 0 0 0 -8.92281,7.99951 v 28.68826 L 33.544445,128.00001 119.0807,51.31464 v 28.688264 a 8.9228071,7.9995159 0 0 0 8.92281,7.999516 h 98.15088 z"
     id="path2"
     style="display:inline;fill:#000000;fill-opacity:1;stroke-width:1.05607" />
  <path
     d="m 226.15439,167.99759 h -98.15088 c -4.92793,0 -8.92281,3.5815 -8.92281,7.99951 v 28.68826 L 33.544445,128.00001 119.0807,51.31464 v 28.688264 c 0,4.418011 3.99488,7.999516 8.92281,7.999516 h 98.15088 z"
     id="path845"
     style="fill:#a3a3c2;fill-opacity:1;stroke-width:1.05607"
     sodipodi:nodetypes="csscccsscc" />
</svg>
