<?xml version="1.0" encoding="UTF-8" standalone="no"?>
<svg
   width="32"
   height="32"
   fill="#000000"
   viewBox="0 0 256 256"
   version="1.1"
   id="svg4"
   sodipodi:docname="bookmarks-color.svg"
   inkscape:version="1.2.2 (b0a8486541, 2022-12-01)"
   inkscape:export-filename="bookmarks-color32.png"
   inkscape:export-xdpi="96"
   inkscape:export-ydpi="96"
   xmlns:inkscape="http://www.inkscape.org/namespaces/inkscape"
   xmlns:sodipodi="http://sodipodi.sourceforge.net/DTD/sodipodi-0.dtd"
   xmlns="http://www.w3.org/2000/svg"
   xmlns:svg="http://www.w3.org/2000/svg">
  <defs
     id="defs8" />
  <sodipodi:namedview
     id="namedview6"
     pagecolor="#ffffff"
     bordercolor="#000000"
     borderopacity="0.25"
     inkscape:showpageshadow="2"
     inkscape:pageopacity="0.0"
     inkscape:pagecheckerboard="0"
     inkscape:deskcolor="#d1d1d1"
     showgrid="false"
     inkscape:zoom="20"
     inkscape:cx="16.025"
     inkscape:cy="16"
     inkscape:window-width="1600"
     inkscape:window-height="842"
     inkscape:window-x="0"
     inkscape:window-y="26"
     inkscape:window-maximized="1"
     inkscape:current-layer="svg4" />
  <path
     d="M 199.36,12 H 92.32 A 17.84,17.846134 0 0 0 74.48,29.846134 V 47.692269 H 56.64 A 17.84,17.846134 0 0 0 38.8,65.538407 V 235.07671 a 8.92,8.9230679 0 0 0 14.10475,7.26115 l 57.25525,-40.91229 57.2664,40.91229 a 8.92,8.9230679 0 0 0 14.0936,-7.26115 v -43.8457 l 21.57525,15.41455 A 8.92,8.9230679 0 0 0 217.2,199.38441 V 29.846134 A 17.84,17.846134 0 0 0 199.36,12 Z m -35.68,205.74363 -48.3464,-34.57688 a 8.92,8.9230679 0 0 0 -10.3695,0 L 56.64,217.73248 V 65.538407 h 107.04 z m 35.68,-35.69228 -17.84,-12.78224 V 65.538407 A 17.84,17.846134 0 0 0 163.68,47.692269 H 92.32 V 29.846134 h 107.04 z"
     id="path2"
     style="display:inline;fill:#000000;fill-opacity:1;stroke-width:1.11519" />
  <path
     d="m 163.68,217.74363 -48.3464,-34.57688 c -3.10155,-2.21614 -7.26795,-2.21614 -10.3695,0 L 56.64,217.73248 V 65.538407 h 107.04 z"
     id="path845"
     sodipodi:nodetypes="ccccccc"
     inkscape:label="path845"
     style="display:inline;fill:#e0e0eb;fill-opacity:1;stroke-width:1.11519" />
  <path
     d="M 199.36,182.05135 181.52,169.26911 V 65.538407 c 0,-9.856147 -7.9873,-17.846138 -17.84,-17.846138 H 92.32 V 29.846134 h 107.04 z"
     id="path943"
     sodipodi:nodetypes="ccsscccc"
     style="display:inline;fill:#a3a3c2;fill-opacity:1;stroke-width:1.11519" />
</svg>
