<?xml version="1.0" encoding="UTF-8" standalone="no"?>
<svg
   width="32"
   height="32"
   fill="#000000"
   viewBox="0 0 256 256"
   version="1.1"
   id="svg4"
   sodipodi:docname="gear-color.svg"
   inkscape:version="1.2.2 (b0a8486541, 2022-12-01)"
   xmlns:inkscape="http://www.inkscape.org/namespaces/inkscape"
   xmlns:sodipodi="http://sodipodi.sourceforge.net/DTD/sodipodi-0.dtd"
   xmlns="http://www.w3.org/2000/svg"
   xmlns:svg="http://www.w3.org/2000/svg">
  <defs
     id="defs8" />
  <sodipodi:namedview
     id="namedview6"
     pagecolor="#ffffff"
     bordercolor="#000000"
     borderopacity="0.25"
     inkscape:showpageshadow="2"
     inkscape:pageopacity="0.0"
     inkscape:pagecheckerboard="0"
     inkscape:deskcolor="#d1d1d1"
     showgrid="false"
     inkscape:zoom="16.875"
     inkscape:cx="16.02963"
     inkscape:cy="16"
     inkscape:window-width="1600"
     inkscape:window-height="842"
     inkscape:window-x="0"
     inkscape:window-y="26"
     inkscape:window-maximized="1"
     inkscape:current-layer="svg4" />
  <path
     d="m 127.98337,74.780541 a 53.202833,53.202833 0 1 0 53.20284,53.202829 53.258253,53.258253 0 0 0 -53.20284,-53.202829 z m 0,88.671389 a 35.468555,35.468555 0 1 1 35.46856,-35.46856 35.468555,35.468555 0 0 1 -35.46856,35.46856 z M 225.5219,130.3775 q 0.0665,-2.39413 0,-4.78825 l 16.53721,-20.66044 a 8.8671388,8.8671389 0 0 0 1.64042,-7.825247 118.83074,118.83074 0 0 0 -12.0593,-29.095299 8.8671388,8.8671389 0 0 0 -6.65036,-4.355982 l -26.29106,-2.926156 q -1.64043,-1.729092 -3.32518,-3.325177 l -3.1035,-26.35757 a 8.8671388,8.8671389 0 0 0 -4.36707,-6.650354 119.38494,119.38494 0 0 0 -29.0953,-12.048225 8.8671388,8.8671389 0 0 0 -7.82525,1.651504 L 130.3775,30.444847 q -2.39413,0 -4.78825,0 L 104.92881,13.940885 A 8.8671388,8.8671389 0 0 0 97.10356,12.300464 119.26302,119.26302 0 0 0 68.008264,24.359773 8.8671388,8.8671389 0 0 0 63.652282,31.010127 L 60.726126,57.34553 q -1.729092,1.651504 -3.325177,3.325177 l -26.35757,3.025911 a 8.8671388,8.8671389 0 0 0 -6.650354,4.367066 119.38494,119.38494 0 0 0 -12.048225,29.095299 8.8671388,8.8671389 0 0 0 1.651504,7.825247 l 16.448543,20.60502 q 0,2.39412 0,4.78825 l -16.503962,20.66043 a 8.8671388,8.8671389 0 0 0 -1.640421,7.82525 118.83074,118.83074 0 0 0 12.059309,29.0953 8.8671388,8.8671389 0 0 0 6.650354,4.35599 l 26.291067,2.92615 q 1.651504,1.72909 3.325177,3.32518 l 3.070247,26.35757 a 8.8671388,8.8671389 0 0 0 4.367065,6.65035 119.38494,119.38494 0 0 0 29.095297,12.04823 8.8671388,8.8671389 0 0 0 7.82525,-1.65151 l 20.60502,-16.44854 q 2.39412,0.0665 4.78825,0 l 20.66043,16.53721 a 8.8671388,8.8671389 0 0 0 7.82525,1.64043 118.83074,118.83074 0 0 0 29.0953,-12.05931 8.8671388,8.8671389 0 0 0 4.35599,-6.65036 l 2.92615,-26.29106 q 1.72909,-1.64043 3.32518,-3.32518 l 26.35757,-3.1035 a 8.8671388,8.8671389 0 0 0 6.65035,-4.36707 119.38494,119.38494 0 0 0 12.04823,-29.0953 8.8671388,8.8671389 0 0 0 -1.65151,-7.82525 z m -17.84512,-7.20455 a 81.943447,81.943447 0 0 1 0,9.62085 8.8671388,8.8671389 0 0 0 1.92861,6.07399 l 15.72808,19.65179 a 101.49549,101.49549 0 0 1 -6.90528,16.62589 l -25.04967,2.83748 a 8.8671388,8.8671389 0 0 0 -5.6528,2.92616 82.142957,82.142958 0 0 1 -6.80553,6.80553 8.8671388,8.8671389 0 0 0 -2.92615,5.6528 l -2.78207,25.0275 a 101.21839,101.21839 0 0 1 -16.62588,6.90528 l -19.66288,-15.72809 a 8.8671388,8.8671389 0 0 0 -5.54197,-1.93968 h -0.53202 a 81.943447,81.943447 0 0 1 -9.62085,0 8.8671388,8.8671389 0 0 0 -6.07399,1.9286 l -19.70722,15.73917 a 101.49549,101.49549 0 0 1 -16.625881,-6.90528 l -2.837484,-25.01642 a 8.8671388,8.8671389 0 0 0 -2.926156,-5.6528 82.142957,82.142958 0 0 1 -6.805529,-6.80553 8.8671388,8.8671389 0 0 0 -5.652801,-2.92615 L 37.57181,175.20089 A 101.21839,101.21839 0 0 1 30.666525,158.575 l 15.728088,-19.66288 a 8.8671388,8.8671389 0 0 0 1.928603,-6.07399 81.943447,81.943447 0 0 1 0,-9.62084 8.8671388,8.8671389 0 0 0 -1.928603,-6.07399 L 30.666525,97.447165 A 101.49549,101.49549 0 0 1 37.57181,80.82128 l 25.016415,-2.837485 a 8.8671388,8.8671389 0 0 0 5.652801,-2.926156 82.142957,82.142958 0 0 1 6.805529,-6.805529 8.8671388,8.8671389 0 0 0 2.93724,-5.663885 L 80.76586,37.57181 a 101.21839,101.21839 0 0 1 16.62588,-6.905285 l 19.66288,15.728088 a 8.8671388,8.8671389 0 0 0 6.07399,1.928603 81.943447,81.943447 0 0 1 9.62085,0 8.8671388,8.8671389 0 0 0 6.07399,-1.928603 l 19.69613,-15.728088 a 101.49549,101.49549 0 0 1 16.62589,6.905285 l 2.83748,25.016415 a 8.8671388,8.8671389 0 0 0 2.92616,5.652801 82.142957,82.142958 0 0 1 6.80553,6.805529 8.8671388,8.8671389 0 0 0 5.6528,2.926156 l 25.0275,2.782065 a 101.21839,101.21839 0 0 1 6.90528,16.625885 l -15.72809,19.662879 a 8.8671388,8.8671389 0 0 0 -1.9286,6.12941 z"
     id="path2"
     style="display:inline;fill:#000000;fill-opacity:1;stroke-width:1.10839" />
  <path
     d="m 127.98337,74.780541 c -21.51851,0 -40.918322,12.962526 -49.152636,32.842689 -8.234295,19.88011 -3.681354,42.76249 11.534466,57.97831 15.21582,15.21583 38.09821,19.76877 57.97832,11.53447 19.88016,-8.2343 32.84269,-27.63412 32.84269,-49.15264 -0.0306,-29.370443 -23.83239,-53.172283 -53.20284,-53.202829 z m 79.69341,48.392409 c 0.18843,3.20419 0.18843,6.41666 0,9.62085 -0.13205,2.1937 0.55525,4.35827 1.92861,6.07399 l 15.72808,19.65179 c -1.80474,5.73557 -4.11559,11.29941 -6.90528,16.62589 l -25.04967,2.83748 c -2.18148,0.24215 -4.19563,1.28477 -5.6528,2.92616 -2.13354,2.39957 -4.40596,4.67198 -6.80553,6.80553 -1.64138,1.45717 -2.684,3.47132 -2.92615,5.6528 l -2.78207,25.0275 c -5.32586,2.79102 -10.88982,5.10192 -16.62588,6.90528 l -19.66288,-15.72809 c -1.57343,-1.25717 -3.52797,-1.94126 -5.54197,-1.93968 h -0.53202 c -3.20419,0.18842 -6.41667,0.18842 -9.62085,0 -2.19371,-0.13206 -4.35828,0.55525 -6.07399,1.9286 l -19.70722,15.73917 c -5.73556,-1.80474 -11.299401,-4.11559 -16.625881,-6.90528 l -2.837484,-25.01642 c -0.24215,-2.18148 -1.28477,-4.19563 -2.926156,-5.6528 -2.399572,-2.13354 -4.671981,-4.40596 -6.805529,-6.80553 -1.457171,-1.64138 -3.47132,-2.684 -5.652801,-2.92615 L 37.57181,175.20089 C 34.780788,169.87503 32.469889,164.31107 30.666525,158.575 l 15.728088,-19.66288 c 1.373358,-1.71571 2.060651,-3.88028 1.928603,-6.07399 -0.188424,-3.20418 -0.188424,-6.41666 0,-9.62084 0.132048,-2.19371 -0.555245,-4.35828 -1.928603,-6.07399 L 30.666525,97.447165 C 32.471268,91.711602 34.782117,86.147759 37.57181,80.82128 l 25.016415,-2.837485 c 2.181482,-0.24215 4.19563,-1.28477 5.652801,-2.926156 2.133548,-2.399572 4.405957,-4.671981 6.805529,-6.805529 1.647919,-1.458124 2.694827,-3.476878 2.93724,-5.663885 L 80.76586,37.57181 c 5.325857,-2.791022 10.88982,-5.101921 16.62588,-6.905285 l 19.66288,15.728088 c 1.71572,1.373358 3.88029,2.060651 6.07399,1.928603 3.20419,-0.188424 6.41667,-0.188424 9.62085,0 2.19371,0.132048 4.35828,-0.555245 6.07399,-1.928603 l 19.69613,-15.728088 c 5.73557,1.804743 11.29941,4.115592 16.62589,6.905285 l 2.83748,25.016415 c 0.24215,2.181482 1.28477,4.19563 2.92616,5.652801 2.39957,2.133548 4.67198,4.405958 6.80553,6.805529 1.45717,1.641387 3.47132,2.684006 5.6528,2.926156 l 25.0275,2.782065 c 2.79102,5.325857 5.10192,10.889821 6.90528,16.625885 l -15.72809,19.662879 c -1.38658,1.73016 -2.07466,3.917 -1.9286,6.12941 z"
     id="path845"
     sodipodi:nodetypes="csssccccccccccccccccccccccccccccccccccccccccccccccccccccc"
     style="fill:#a3a3c2;fill-opacity:1;stroke-width:1.10839" />
</svg>
